<?xml version="1.0" standalone="no"?>
<!DOCTYPE svg PUBLIC "-//W3C//DTD SVG 20010904//EN"
 "http://www.w3.org/TR/2001/REC-SVG-20010904/DTD/svg10.dtd">
<svg version="1.0" xmlns="http://www.w3.org/2000/svg"
 width="1024.000000pt" height="1280.000000pt" viewBox="0 0 1024.000000 1280.000000"
 preserveAspectRatio="xMidYMid meet">

<g transform="translate(0.000000,1280.000000) scale(0.100000,-0.100000)"
fill="#000000" stroke="none">
<path d="M5446 10199 c-2 -8 -7 -27 -10 -44 -15 -74 -39 -196 -51 -265 -21
-113 -44 -229 -56 -280 -5 -25 -16 -79 -24 -120 -8 -41 -17 -87 -20 -102 -6
-24 -4 -28 21 -33 57 -12 110 -24 154 -34 25 -6 72 -16 105 -21 219 -38 230
-40 290 -29 229 39 353 174 382 416 5 45 -19 158 -44 208 -63 123 -196 212
-368 245 -33 7 -94 18 -135 26 -41 8 -95 19 -120 24 -98 22 -119 23 -124 9z
m324 -215 c131 -27 201 -74 241 -162 18 -39 21 -59 17 -127 -8 -116 -56 -195
-145 -236 -47 -21 -161 -25 -248 -8 -27 6 -65 13 -83 16 -18 3 -34 9 -37 13
-5 8 9 86 61 350 8 41 17 89 20 105 14 80 11 77 57 70 23 -3 76 -13 117 -21z"/>
<path d="M3842 10051 c-34 -15 -67 -32 -72 -37 -9 -9 10 -62 77 -214 36 -81
39 -75 -49 -71 -71 3 -85 0 -143 -28 -74 -35 -130 -89 -165 -157 -21 -41 -25
-61 -24 -138 0 -80 4 -99 30 -156 61 -130 199 -221 315 -207 118 13 216 67
258 140 l23 40 22 -28 23 -28 56 26 c31 15 60 27 65 27 5 0 15 6 21 14 12 14
3 41 -45 142 -13 28 -24 54 -24 57 0 6 -12 34 -60 142 -34 77 -50 115 -50 119
0 5 -22 56 -66 153 -8 17 -14 34 -14 37 0 3 -14 36 -31 73 -18 38 -35 79 -38
93 -10 34 -34 34 -109 1z m69 -484 c67 -45 105 -132 93 -214 -18 -124 -190
-180 -281 -92 -50 49 -68 94 -68 166 0 55 4 66 30 94 48 51 85 69 141 69 37 0
61 -6 85 -23z"/>
<path d="M6435 9631 c-77 -38 -137 -100 -171 -176 -22 -49 -26 -75 -26 -140 0
-71 4 -87 32 -140 39 -74 70 -108 135 -149 125 -79 270 -107 328 -63 15 11 15
16 1 62 -9 28 -18 56 -20 63 -2 8 -25 12 -68 12 -36 0 -68 5 -71 10 -3 6 -13
10 -21 10 -29 0 -94 51 -114 90 -26 51 -27 120 -2 120 10 0 22 -4 28 -9 24
-22 394 -203 406 -198 8 2 25 26 38 53 22 41 25 61 25 148 0 94 -2 104 -29
146 -44 69 -85 108 -155 147 -58 33 -72 37 -160 40 -91 4 -99 3 -156 -26z
m239 -135 c41 -17 93 -79 98 -118 6 -40 -2 -78 -16 -78 -6 -1 -71 30 -144 67
-89 46 -132 73 -130 83 2 8 18 25 37 37 39 27 104 30 155 9z"/>
<path d="M4691 9511 c-31 -29 -36 -46 -32 -111 5 -65 75 -108 144 -89 88 24
112 132 45 200 -25 24 -38 29 -78 29 -39 0 -54 -5 -79 -29z"/>
<path d="M7125 9378 c-2 -7 -11 -38 -20 -68 -9 -30 -21 -64 -25 -75 -5 -11
-12 -36 -16 -55 -3 -19 -10 -41 -15 -50 -4 -8 -15 -42 -24 -75 -10 -33 -21
-69 -25 -80 -17 -42 -80 -246 -80 -259 0 -15 134 -126 153 -126 6 0 93 41 192
91 99 50 237 120 307 155 69 35 129 67 132 72 8 13 -108 112 -131 112 -10 0
-31 -7 -48 -16 -143 -77 -381 -192 -383 -185 -2 5 15 62 36 127 22 66 49 153
62 194 12 41 26 83 31 92 16 32 9 46 -53 102 -61 56 -85 67 -93 44z"/>
<path d="M3033 9340 c-62 -28 -159 -129 -174 -182 -17 -58 -23 -63 -43 -34
l-16 25 -33 -20 c-17 -10 -50 -35 -71 -53 -47 -40 -46 -45 29 -136 25 -30 71
-88 102 -129 32 -40 80 -101 106 -135 27 -33 64 -82 84 -108 19 -27 40 -48 47
-48 6 0 36 20 66 45 30 25 58 45 62 45 23 0 -1 46 -71 135 -44 55 -90 113
-102 128 -61 78 -75 154 -39 212 28 46 91 85 136 85 33 0 45 -8 111 -76 40
-42 73 -80 73 -84 0 -5 27 -41 60 -80 33 -39 60 -76 60 -81 0 -4 8 -13 18 -18
15 -8 32 0 85 40 37 28 67 56 67 62 0 7 -21 40 -48 73 -26 34 -60 79 -77 100
-163 213 -216 254 -325 253 -40 0 -81 -7 -107 -19z"/>
<path d="M2425 8741 c-77 -35 -149 -109 -187 -190 -25 -53 -29 -76 -30 -145 0
-102 29 -172 106 -244 79 -75 112 -87 236 -87 97 1 109 3 153 29 68 40 151
128 183 195 44 90 45 94 42 151 l-3 55 -65 -4 c-36 -2 -68 -8 -72 -14 -3 -6
-9 -31 -13 -55 -10 -68 -50 -125 -118 -169 -49 -31 -139 -30 -145 1 -2 10 0
21 5 25 9 7 62 72 119 147 21 27 66 86 101 131 35 45 63 86 63 92 0 16 -61 58
-123 86 -81 35 -170 34 -252 -4z m167 -145 c17 -12 17 -15 -5 -44 -77 -108
-171 -222 -183 -222 -31 0 -52 93 -35 157 11 42 46 83 92 108 31 17 109 18
131 1z"/>
<path d="M8120 8516 c-52 -29 -198 -110 -325 -181 -126 -70 -247 -137 -267
-148 -21 -12 -38 -27 -38 -34 0 -8 12 -35 26 -61 15 -26 45 -81 67 -122 139
-258 190 -333 258 -380 26 -17 64 -36 85 -41 128 -29 264 82 264 216 0 46 13
58 39 33 7 -8 38 -13 79 -13 56 0 74 5 109 28 23 14 54 44 68 64 22 33 25 48
25 120 0 106 -8 127 -138 353 -18 30 -51 92 -74 138 -33 63 -47 82 -63 81 -11
0 -63 -24 -115 -53z m124 -242 c112 -189 123 -259 46 -299 -42 -22 -74 -19
-109 10 -32 28 -154 231 -148 248 4 14 159 97 172 93 5 -1 23 -25 39 -52z
m-316 -165 c13 -24 41 -75 63 -113 21 -38 39 -75 39 -82 0 -7 5 -16 10 -19 6
-3 10 -24 10 -45 0 -30 -7 -45 -31 -69 -17 -17 -41 -34 -54 -37 -46 -11 -114
45 -160 133 -11 21 -37 69 -57 107 -21 37 -36 72 -33 76 3 5 38 25 77 45 40
21 77 41 83 46 15 15 28 5 53 -42z"/>
<path d="M2151 7950 c-34 -71 -67 -132 -72 -136 -5 -3 -9 -13 -9 -23 0 -25
115 -84 129 -67 11 13 151 282 151 290 0 7 -112 66 -125 66 -6 0 -39 -58 -74
-130z"/>
<path d="M1784 7693 c-3 -10 -9 -27 -14 -38 -4 -11 -11 -33 -16 -50 -12 -38
-39 -43 -103 -19 -27 9 -55 15 -62 12 -8 -3 -25 -41 -38 -84 -22 -74 -22 -78
-5 -91 10 -7 26 -13 36 -13 10 0 26 -4 36 -9 9 -5 25 -12 36 -15 18 -6 18 -6
4 -91 -2 -16 7 -23 47 -37 71 -24 74 -23 95 27 11 25 22 45 26 45 10 0 154
-49 179 -60 32 -15 106 -32 163 -37 74 -7 123 18 173 87 40 55 60 121 57 187
l-3 58 -65 0 -65 0 -3 -35 c-5 -65 -37 -109 -80 -110 -23 0 -107 23 -147 41
-11 4 -45 16 -75 25 -79 25 -80 26 -63 87 30 105 31 101 -27 120 -66 21 -79
21 -86 0z"/>
<path d="M8381 7526 l-44 -45 29 -38 c44 -58 61 -93 74 -153 10 -47 9 -61 -4
-92 -18 -41 -55 -72 -83 -66 -12 2 -21 20 -29 58 -27 120 -35 147 -62 199 -86
171 -304 155 -357 -26 -16 -54 -16 -63 -1 -131 18 -81 49 -137 98 -176 29 -23
30 -26 12 -26 -42 0 -48 -23 -29 -103 10 -39 22 -75 27 -78 5 -3 33 0 61 7 86
21 220 54 262 66 78 20 131 41 172 70 84 57 126 191 91 297 -51 161 -113 273
-153 279 -13 2 -36 -14 -64 -42z m-218 -224 c15 -15 27 -34 27 -40 0 -7 4 -20
9 -30 5 -9 14 -41 21 -71 12 -50 11 -55 -6 -68 -28 -21 -91 -10 -124 22 -35
34 -64 107 -56 141 9 35 50 74 79 74 13 0 35 -13 50 -28z"/>
<path d="M1705 7081 c-49 -22 -122 -100 -130 -138 -4 -15 -11 -38 -16 -51 -21
-53 -2 -170 36 -226 21 -29 19 -34 -17 -38 -32 -3 -33 -5 -41 -63 -16 -117
-19 -109 43 -116 75 -9 354 -38 465 -49 50 -4 95 -9 100 -10 36 -8 45 1 45 43
0 23 4 57 9 75 6 18 8 39 5 46 -5 12 -86 27 -214 40 -221 23 -278 58 -279 171
-1 56 22 104 64 131 23 15 43 16 160 10 73 -4 149 -11 167 -17 18 -5 57 -9 85
-9 l53 0 0 33 c0 17 5 52 11 76 16 71 10 77 -84 85 -45 3 -120 10 -167 15
-142 16 -250 13 -295 -8z"/>
<path d="M8275 6801 c-99 -27 -176 -90 -225 -187 -23 -44 -25 -59 -25 -178 0
-125 2 -133 28 -178 33 -55 102 -120 123 -116 9 2 31 32 50 67 l35 64 -34 36
c-61 66 -74 139 -37 211 31 62 85 90 168 90 78 0 120 -21 159 -79 41 -61 24
-194 -28 -222 -11 -5 -19 -19 -19 -31 0 -23 67 -138 81 -138 20 0 92 76 117
124 25 47 27 60 27 171 0 102 -4 127 -22 168 -29 63 -106 143 -166 173 -52 27
-176 40 -232 25z"/>
<path d="M1815 6291 c-56 -15 -110 -49 -156 -98 -74 -79 -84 -109 -84 -249 0
-112 2 -124 28 -176 40 -80 86 -129 152 -163 54 -28 67 -30 159 -30 86 0 107
4 144 23 141 75 222 236 193 384 -26 130 -98 235 -196 285 -38 20 -68 26 -130
29 -44 2 -93 0 -110 -5z m221 -222 c45 -43 64 -83 64 -129 0 -114 -92 -187
-221 -178 -108 8 -171 92 -154 207 5 37 16 54 50 88 49 46 70 53 163 48 57 -3
68 -7 98 -36z"/>
<path d="M8027 6103 c-3 -8 -13 -40 -36 -128 -6 -22 -7 -43 -3 -46 6 -6 70
-23 135 -36 21 -4 36 -19 57 -57 17 -28 30 -55 30 -61 -1 -5 -66 -41 -145 -80
-101 -49 -146 -76 -150 -90 -3 -11 -10 -36 -15 -55 -4 -19 -13 -54 -19 -76
-14 -55 -14 -64 4 -64 13 0 190 82 358 166 56 28 73 30 80 10 11 -28 191 -296
199 -296 4 0 10 12 13 28 3 15 10 41 15 57 23 79 23 121 -3 166 -84 149 -123
213 -162 265 -17 23 2 26 76 9 41 -9 104 -23 142 -31 37 -8 100 -21 140 -30
39 -8 88 -18 108 -21 36 -5 36 -5 48 44 7 26 16 63 21 81 5 19 7 39 4 46 -3 7
-55 23 -117 36 -62 12 -141 29 -177 37 -36 8 -94 20 -130 28 -36 8 -85 19
-110 25 -25 6 -74 17 -110 25 -74 16 -137 30 -195 45 -49 12 -53 12 -58 3z"/>
<path d="M1780 5438 c-14 -7 -41 -17 -60 -23 -19 -6 -36 -18 -38 -28 -5 -25
64 -114 111 -144 43 -27 43 -27 -9 -58 -15 -10 -15 -16 -5 -50 16 -51 39 -103
49 -109 7 -4 112 30 197 63 17 6 44 16 60 22 17 6 44 18 62 25 17 8 36 14 42
14 6 0 19 4 29 9 28 15 182 71 197 71 20 0 39 28 28 43 -5 6 -17 38 -28 70
-10 31 -24 62 -30 67 -12 10 -114 -22 -212 -66 -17 -8 -37 -14 -45 -14 -8 0
-18 -4 -23 -8 -6 -5 -30 -14 -54 -21 -85 -24 -169 23 -202 113 -14 38 -27 42
-69 24z"/>
<path d="M8097 5289 c-9 -6 -17 -14 -17 -19 0 -5 -11 -33 -24 -62 -13 -29 -41
-89 -61 -132 -19 -44 -34 -84 -32 -90 6 -15 114 -59 130 -53 7 3 26 36 42 73
29 70 93 213 102 226 2 4 -22 20 -54 34 -32 15 -60 28 -63 29 -3 2 -13 -1 -23
-6z"/>
<path d="M2143 4937 c-29 -17 -53 -37 -53 -43 0 -7 45 -85 101 -174 84 -135
99 -164 88 -175 -24 -23 -182 -114 -190 -109 -4 2 -44 64 -89 137 -127 204
-149 237 -161 237 -6 0 -28 -13 -49 -30 -21 -16 -43 -30 -49 -30 -19 0 -12
-39 16 -83 15 -23 34 -54 43 -68 91 -154 257 -409 267 -409 12 0 110 59 447
270 119 74 225 140 235 145 53 30 53 32 9 103 -64 103 -54 100 -142 45 -42
-26 -90 -56 -107 -65 -16 -10 -40 -25 -53 -33 -21 -14 -24 -13 -42 7 -25 29
-64 86 -64 92 0 5 -66 111 -113 183 -12 18 -26 33 -32 33 -5 -1 -34 -15 -62
-33z"/>
<path d="M7644 4895 c-131 -63 -228 -202 -240 -341 -5 -51 -3 -73 5 -79 7 -4
41 -4 77 0 l64 7 0 34 c0 40 42 139 73 172 34 37 92 62 140 62 24 0 47 -3 50
-7 9 -8 -15 -46 -155 -246 -65 -92 -118 -171 -118 -175 1 -10 67 -55 115 -77
59 -28 194 -26 258 3 52 25 147 115 173 165 42 83 57 203 33 264 -32 80 -53
114 -93 151 -77 71 -151 102 -246 102 -54 0 -77 -6 -136 -35z m306 -257 c23
-38 27 -116 8 -151 -45 -80 -137 -126 -202 -101 -23 9 -20 38 9 72 14 17 25
33 25 37 0 11 124 175 133 175 4 0 16 -15 27 -32z"/>
<path d="M7210 4393 c-36 -30 -66 -59 -68 -64 -2 -5 43 -61 100 -124 161 -181
191 -242 154 -313 -26 -50 -97 -102 -139 -102 -30 0 -90 40 -125 83 -15 17
-49 57 -77 88 -27 31 -69 79 -93 108 -24 28 -49 51 -56 51 -15 0 -130 -98
-134 -115 -1 -6 8 -23 20 -37 13 -14 59 -67 103 -119 189 -221 227 -249 337
-249 52 0 77 6 117 26 85 44 156 137 176 229 l7 30 15 -22 c24 -36 54 -28 111
30 29 29 52 55 52 58 0 3 -9 17 -21 30 -132 155 -176 206 -249 288 -47 53
-100 115 -118 139 -19 23 -37 42 -40 42 -4 0 -36 -26 -72 -57z"/>
<path d="M3185 4194 c-11 -8 -54 -32 -96 -54 -41 -21 -93 -48 -115 -60 -21
-13 -73 -41 -114 -65 -41 -23 -79 -44 -85 -46 -23 -9 -165 -91 -169 -98 -3 -4
-2 -11 2 -16 14 -19 111 -95 121 -95 10 0 154 74 176 91 6 4 48 27 95 52 47
25 99 53 117 63 17 10 35 15 39 12 6 -7 -8 -78 -26 -123 -8 -21 -14 -42 -50
-165 -12 -41 -28 -94 -36 -118 -8 -24 -11 -50 -7 -57 5 -8 37 -37 72 -65 59
-47 64 -50 76 -33 7 10 15 36 19 58 4 22 18 73 32 113 13 40 24 81 24 91 0 10
3 21 7 25 5 4 13 29 20 54 6 26 16 63 22 82 5 19 17 60 25 90 8 30 21 77 30
104 l15 49 -34 31 c-68 62 -113 96 -126 96 -8 0 -23 -7 -34 -16z"/>
<path d="M6530 3880 c-14 -4 -37 -11 -51 -14 -15 -3 -53 -24 -87 -46 -45 -30
-65 -52 -82 -87 l-22 -46 -23 29 -23 29 -76 -38 c-42 -21 -76 -43 -76 -49 0
-9 96 -209 303 -630 51 -103 98 -188 105 -188 18 0 138 59 151 74 7 9 -8 48
-54 141 -36 70 -65 132 -65 136 0 5 34 9 75 9 150 0 265 88 314 241 20 65 13
130 -25 216 -8 17 -14 34 -14 38 0 17 -76 106 -114 133 -69 49 -175 72 -236
52z m118 -207 c110 -89 114 -246 7 -308 -49 -29 -129 -34 -175 -10 -59 31
-100 108 -100 189 0 46 5 58 37 95 46 55 85 72 146 68 35 -3 58 -12 85 -34z"/>
<path d="M3581 3843 c-20 -17 -20 -20 -6 -68 9 -27 19 -53 24 -58 5 -5 40 -10
78 -11 76 -2 130 -25 175 -73 57 -61 75 -163 25 -147 -23 7 -108 46 -262 119
-49 23 -107 50 -129 60 -27 13 -43 16 -54 8 -28 -17 -51 -102 -51 -188 -1
-140 55 -226 192 -294 76 -38 89 -41 164 -41 59 0 94 5 128 20 181 77 265 284
186 453 -48 101 -158 190 -277 225 -64 19 -168 16 -193 -5z m123 -399 c75 -36
136 -71 136 -78 0 -7 -10 -22 -22 -33 -63 -57 -183 -43 -243 28 -35 43 -47
149 -16 149 5 0 71 -30 145 -66z"/>
<path d="M4425 3554 c-184 -44 -304 -177 -324 -357 -27 -242 74 -394 324 -486
17 -6 59 -16 95 -21 134 -20 246 -38 265 -44 11 -2 37 -7 58 -10 34 -4 39 -2
49 22 5 15 14 52 18 82 10 62 37 222 49 290 5 25 14 81 20 125 7 44 16 94 21
110 5 17 12 62 16 100 3 39 11 78 16 88 14 27 -5 44 -60 51 -26 3 -69 10 -97
15 -269 48 -365 56 -450 35z m233 -165 c53 -6 110 -15 125 -21 31 -12 31 -15
6 -158 -20 -109 -28 -157 -42 -250 -20 -124 -22 -130 -61 -130 -38 0 -200 33
-238 48 -40 16 -116 89 -136 131 -24 51 -23 173 3 232 34 79 98 134 175 150
52 10 63 10 168 -2z"/>
<path d="M5553 3550 c-53 -32 -66 -125 -24 -174 21 -23 64 -46 90 -46 37 0 90
33 106 66 19 41 19 68 -1 110 -30 62 -109 82 -171 44z"/>
</g>
</svg>
